<mxfile host="app.diagrams.net" agent="Mozilla/5.0 (Windows NT 10.0; Win64; x64) AppleWebKit/537.36 (KHTML, like Gecko) Chrome/134.0.0.0 Safari/537.36" version="26.1.1">
  <diagram name="Page-1" id="5ybP3fVxR_O7OG9nowo5">
    <mxGraphModel dx="954" dy="566" grid="1" gridSize="10" guides="1" tooltips="1" connect="1" arrows="1" fold="1" page="1" pageScale="1" pageWidth="827" pageHeight="1169" math="0" shadow="0" adaptiveColors="auto">
      <root>
        <mxCell id="0" />
        <mxCell id="1" parent="0" />
        <mxCell id="vFmSvjuSKfPeqINILVZh-1" value="MEMBER" style="shape=table;startSize=25;container=1;collapsible=0;childLayout=tableLayout;fixedRows=1;rowLines=1;fontStyle=1;align=center;resizeLast=1;fillColor=#dae8fc;strokeColor=#33001A;strokeWidth=2;" vertex="1" parent="1">
          <mxGeometry x="20" y="20" width="178" height="157" as="geometry" />
        </mxCell>
        <mxCell id="vFmSvjuSKfPeqINILVZh-2" style="shape=tableRow;horizontal=0;startSize=0;swimlaneHead=0;swimlaneBody=0;fillColor=none;collapsible=0;dropTarget=0;points=[[0,0.5],[1,0.5]];portConstraint=eastwest;top=0;left=0;right=0;bottom=0;fontStyle=1;strokeColor=#33001A;strokeWidth=2;" vertex="1" parent="vFmSvjuSKfPeqINILVZh-1">
          <mxGeometry y="25" width="178" height="22" as="geometry" />
        </mxCell>
        <mxCell id="vFmSvjuSKfPeqINILVZh-3" value="int" style="shape=partialRectangle;connectable=0;fillColor=none;top=0;left=0;bottom=0;right=0;align=left;spacingLeft=2;overflow=hidden;fontSize=11;fontStyle=1;strokeColor=#33001A;strokeWidth=2;" vertex="1" parent="vFmSvjuSKfPeqINILVZh-2">
          <mxGeometry width="36" height="22" as="geometry">
            <mxRectangle width="36" height="22" as="alternateBounds" />
          </mxGeometry>
        </mxCell>
        <mxCell id="vFmSvjuSKfPeqINILVZh-4" value="id" style="shape=partialRectangle;connectable=0;fillColor=none;top=0;left=0;bottom=0;right=0;align=left;spacingLeft=2;overflow=hidden;fontSize=11;fontStyle=1;strokeColor=#33001A;strokeWidth=2;" vertex="1" parent="vFmSvjuSKfPeqINILVZh-2">
          <mxGeometry x="36" width="120" height="22" as="geometry">
            <mxRectangle width="120" height="22" as="alternateBounds" />
          </mxGeometry>
        </mxCell>
        <mxCell id="vFmSvjuSKfPeqINILVZh-5" value="PK" style="shape=partialRectangle;connectable=0;fillColor=none;top=0;left=0;bottom=0;right=0;align=left;spacingLeft=2;overflow=hidden;fontSize=11;fontStyle=1;strokeColor=#33001A;strokeWidth=2;" vertex="1" parent="vFmSvjuSKfPeqINILVZh-2">
          <mxGeometry x="156" width="22" height="22" as="geometry">
            <mxRectangle width="22" height="22" as="alternateBounds" />
          </mxGeometry>
        </mxCell>
        <mxCell id="vFmSvjuSKfPeqINILVZh-6" style="shape=tableRow;horizontal=0;startSize=0;swimlaneHead=0;swimlaneBody=0;fillColor=none;collapsible=0;dropTarget=0;points=[[0,0.5],[1,0.5]];portConstraint=eastwest;top=0;left=0;right=0;bottom=0;fontStyle=1;strokeColor=#33001A;strokeWidth=2;" vertex="1" parent="vFmSvjuSKfPeqINILVZh-1">
          <mxGeometry y="47" width="178" height="22" as="geometry" />
        </mxCell>
        <mxCell id="vFmSvjuSKfPeqINILVZh-7" value="string" style="shape=partialRectangle;connectable=0;fillColor=none;top=0;left=0;bottom=0;right=0;align=left;spacingLeft=2;overflow=hidden;fontSize=11;fontStyle=1;strokeColor=#33001A;strokeWidth=2;" vertex="1" parent="vFmSvjuSKfPeqINILVZh-6">
          <mxGeometry width="36" height="22" as="geometry">
            <mxRectangle width="36" height="22" as="alternateBounds" />
          </mxGeometry>
        </mxCell>
        <mxCell id="vFmSvjuSKfPeqINILVZh-8" value="name" style="shape=partialRectangle;connectable=0;fillColor=none;top=0;left=0;bottom=0;right=0;align=left;spacingLeft=2;overflow=hidden;fontSize=11;fontStyle=1;strokeColor=#33001A;strokeWidth=2;" vertex="1" parent="vFmSvjuSKfPeqINILVZh-6">
          <mxGeometry x="36" width="120" height="22" as="geometry">
            <mxRectangle width="120" height="22" as="alternateBounds" />
          </mxGeometry>
        </mxCell>
        <mxCell id="vFmSvjuSKfPeqINILVZh-9" value="" style="shape=partialRectangle;connectable=0;fillColor=none;top=0;left=0;bottom=0;right=0;align=left;spacingLeft=2;overflow=hidden;fontSize=11;fontStyle=1;strokeColor=#33001A;strokeWidth=2;" vertex="1" parent="vFmSvjuSKfPeqINILVZh-6">
          <mxGeometry x="156" width="22" height="22" as="geometry">
            <mxRectangle width="22" height="22" as="alternateBounds" />
          </mxGeometry>
        </mxCell>
        <mxCell id="vFmSvjuSKfPeqINILVZh-10" style="shape=tableRow;horizontal=0;startSize=0;swimlaneHead=0;swimlaneBody=0;fillColor=none;collapsible=0;dropTarget=0;points=[[0,0.5],[1,0.5]];portConstraint=eastwest;top=0;left=0;right=0;bottom=0;fontStyle=1;strokeColor=#33001A;strokeWidth=2;" vertex="1" parent="vFmSvjuSKfPeqINILVZh-1">
          <mxGeometry y="69" width="178" height="22" as="geometry" />
        </mxCell>
        <mxCell id="vFmSvjuSKfPeqINILVZh-11" value="string" style="shape=partialRectangle;connectable=0;fillColor=none;top=0;left=0;bottom=0;right=0;align=left;spacingLeft=2;overflow=hidden;fontSize=11;fontStyle=1;strokeColor=#33001A;strokeWidth=2;" vertex="1" parent="vFmSvjuSKfPeqINILVZh-10">
          <mxGeometry width="36" height="22" as="geometry">
            <mxRectangle width="36" height="22" as="alternateBounds" />
          </mxGeometry>
        </mxCell>
        <mxCell id="vFmSvjuSKfPeqINILVZh-12" value="email" style="shape=partialRectangle;connectable=0;fillColor=none;top=0;left=0;bottom=0;right=0;align=left;spacingLeft=2;overflow=hidden;fontSize=11;fontStyle=1;strokeColor=#33001A;strokeWidth=2;" vertex="1" parent="vFmSvjuSKfPeqINILVZh-10">
          <mxGeometry x="36" width="120" height="22" as="geometry">
            <mxRectangle width="120" height="22" as="alternateBounds" />
          </mxGeometry>
        </mxCell>
        <mxCell id="vFmSvjuSKfPeqINILVZh-13" value="" style="shape=partialRectangle;connectable=0;fillColor=none;top=0;left=0;bottom=0;right=0;align=left;spacingLeft=2;overflow=hidden;fontSize=11;fontStyle=1;strokeColor=#33001A;strokeWidth=2;" vertex="1" parent="vFmSvjuSKfPeqINILVZh-10">
          <mxGeometry x="156" width="22" height="22" as="geometry">
            <mxRectangle width="22" height="22" as="alternateBounds" />
          </mxGeometry>
        </mxCell>
        <mxCell id="vFmSvjuSKfPeqINILVZh-14" style="shape=tableRow;horizontal=0;startSize=0;swimlaneHead=0;swimlaneBody=0;fillColor=none;collapsible=0;dropTarget=0;points=[[0,0.5],[1,0.5]];portConstraint=eastwest;top=0;left=0;right=0;bottom=0;fontStyle=1;strokeColor=#33001A;strokeWidth=2;" vertex="1" parent="vFmSvjuSKfPeqINILVZh-1">
          <mxGeometry y="91" width="178" height="22" as="geometry" />
        </mxCell>
        <mxCell id="vFmSvjuSKfPeqINILVZh-15" value="string" style="shape=partialRectangle;connectable=0;fillColor=none;top=0;left=0;bottom=0;right=0;align=left;spacingLeft=2;overflow=hidden;fontSize=11;fontStyle=1;strokeColor=#33001A;strokeWidth=2;" vertex="1" parent="vFmSvjuSKfPeqINILVZh-14">
          <mxGeometry width="36" height="22" as="geometry">
            <mxRectangle width="36" height="22" as="alternateBounds" />
          </mxGeometry>
        </mxCell>
        <mxCell id="vFmSvjuSKfPeqINILVZh-16" value="membership_type" style="shape=partialRectangle;connectable=0;fillColor=none;top=0;left=0;bottom=0;right=0;align=left;spacingLeft=2;overflow=hidden;fontSize=11;fontStyle=1;strokeColor=#33001A;strokeWidth=2;" vertex="1" parent="vFmSvjuSKfPeqINILVZh-14">
          <mxGeometry x="36" width="120" height="22" as="geometry">
            <mxRectangle width="120" height="22" as="alternateBounds" />
          </mxGeometry>
        </mxCell>
        <mxCell id="vFmSvjuSKfPeqINILVZh-17" value="" style="shape=partialRectangle;connectable=0;fillColor=none;top=0;left=0;bottom=0;right=0;align=left;spacingLeft=2;overflow=hidden;fontSize=11;fontStyle=1;strokeColor=#33001A;strokeWidth=2;" vertex="1" parent="vFmSvjuSKfPeqINILVZh-14">
          <mxGeometry x="156" width="22" height="22" as="geometry">
            <mxRectangle width="22" height="22" as="alternateBounds" />
          </mxGeometry>
        </mxCell>
        <mxCell id="vFmSvjuSKfPeqINILVZh-18" style="shape=tableRow;horizontal=0;startSize=0;swimlaneHead=0;swimlaneBody=0;fillColor=none;collapsible=0;dropTarget=0;points=[[0,0.5],[1,0.5]];portConstraint=eastwest;top=0;left=0;right=0;bottom=0;fontStyle=1;strokeColor=#33001A;strokeWidth=2;" vertex="1" parent="vFmSvjuSKfPeqINILVZh-1">
          <mxGeometry y="113" width="178" height="22" as="geometry" />
        </mxCell>
        <mxCell id="vFmSvjuSKfPeqINILVZh-19" value="string" style="shape=partialRectangle;connectable=0;fillColor=none;top=0;left=0;bottom=0;right=0;align=left;spacingLeft=2;overflow=hidden;fontSize=11;fontStyle=1;strokeColor=#33001A;strokeWidth=2;" vertex="1" parent="vFmSvjuSKfPeqINILVZh-18">
          <mxGeometry width="36" height="22" as="geometry">
            <mxRectangle width="36" height="22" as="alternateBounds" />
          </mxGeometry>
        </mxCell>
        <mxCell id="vFmSvjuSKfPeqINILVZh-20" value="predominant_interest" style="shape=partialRectangle;connectable=0;fillColor=none;top=0;left=0;bottom=0;right=0;align=left;spacingLeft=2;overflow=hidden;fontSize=11;fontStyle=1;strokeColor=#33001A;strokeWidth=2;" vertex="1" parent="vFmSvjuSKfPeqINILVZh-18">
          <mxGeometry x="36" width="120" height="22" as="geometry">
            <mxRectangle width="120" height="22" as="alternateBounds" />
          </mxGeometry>
        </mxCell>
        <mxCell id="vFmSvjuSKfPeqINILVZh-21" value="" style="shape=partialRectangle;connectable=0;fillColor=none;top=0;left=0;bottom=0;right=0;align=left;spacingLeft=2;overflow=hidden;fontSize=11;fontStyle=1;strokeColor=#33001A;strokeWidth=2;" vertex="1" parent="vFmSvjuSKfPeqINILVZh-18">
          <mxGeometry x="156" width="22" height="22" as="geometry">
            <mxRectangle width="22" height="22" as="alternateBounds" />
          </mxGeometry>
        </mxCell>
        <mxCell id="vFmSvjuSKfPeqINILVZh-22" style="shape=tableRow;horizontal=0;startSize=0;swimlaneHead=0;swimlaneBody=0;fillColor=none;collapsible=0;dropTarget=0;points=[[0,0.5],[1,0.5]];portConstraint=eastwest;top=0;left=0;right=0;bottom=0;fontStyle=1;strokeColor=#33001A;strokeWidth=2;" vertex="1" parent="vFmSvjuSKfPeqINILVZh-1">
          <mxGeometry y="135" width="178" height="22" as="geometry" />
        </mxCell>
        <mxCell id="vFmSvjuSKfPeqINILVZh-23" value="date" style="shape=partialRectangle;connectable=0;fillColor=none;top=0;left=0;bottom=0;right=0;align=left;spacingLeft=2;overflow=hidden;fontSize=11;fontStyle=1;strokeColor=#33001A;strokeWidth=2;" vertex="1" parent="vFmSvjuSKfPeqINILVZh-22">
          <mxGeometry width="36" height="22" as="geometry">
            <mxRectangle width="36" height="22" as="alternateBounds" />
          </mxGeometry>
        </mxCell>
        <mxCell id="vFmSvjuSKfPeqINILVZh-24" value="joined_date" style="shape=partialRectangle;connectable=0;fillColor=none;top=0;left=0;bottom=0;right=0;align=left;spacingLeft=2;overflow=hidden;fontSize=11;fontStyle=1;strokeColor=#33001A;strokeWidth=2;" vertex="1" parent="vFmSvjuSKfPeqINILVZh-22">
          <mxGeometry x="36" width="120" height="22" as="geometry">
            <mxRectangle width="120" height="22" as="alternateBounds" />
          </mxGeometry>
        </mxCell>
        <mxCell id="vFmSvjuSKfPeqINILVZh-25" value="" style="shape=partialRectangle;connectable=0;fillColor=none;top=0;left=0;bottom=0;right=0;align=left;spacingLeft=2;overflow=hidden;fontSize=11;fontStyle=1;strokeColor=#33001A;strokeWidth=2;" vertex="1" parent="vFmSvjuSKfPeqINILVZh-22">
          <mxGeometry x="156" width="22" height="22" as="geometry">
            <mxRectangle width="22" height="22" as="alternateBounds" />
          </mxGeometry>
        </mxCell>
        <mxCell id="vFmSvjuSKfPeqINILVZh-26" value="EVENT" style="shape=table;startSize=25;container=1;collapsible=0;childLayout=tableLayout;fixedRows=1;rowLines=1;fontStyle=1;align=center;resizeLast=1;fillColor=#e1d5e7;strokeColor=#33001A;strokeWidth=2;" vertex="1" parent="1">
          <mxGeometry x="290" y="42" width="124" height="113" as="geometry" />
        </mxCell>
        <mxCell id="vFmSvjuSKfPeqINILVZh-27" style="shape=tableRow;horizontal=0;startSize=0;swimlaneHead=0;swimlaneBody=0;fillColor=none;collapsible=0;dropTarget=0;points=[[0,0.5],[1,0.5]];portConstraint=eastwest;top=0;left=0;right=0;bottom=0;fontStyle=1;strokeColor=#33001A;strokeWidth=2;" vertex="1" parent="vFmSvjuSKfPeqINILVZh-26">
          <mxGeometry y="25" width="124" height="22" as="geometry" />
        </mxCell>
        <mxCell id="vFmSvjuSKfPeqINILVZh-28" value="int" style="shape=partialRectangle;connectable=0;fillColor=none;top=0;left=0;bottom=0;right=0;align=left;spacingLeft=2;overflow=hidden;fontSize=11;fontStyle=1;strokeColor=#33001A;strokeWidth=2;" vertex="1" parent="vFmSvjuSKfPeqINILVZh-27">
          <mxGeometry width="36" height="22" as="geometry">
            <mxRectangle width="36" height="22" as="alternateBounds" />
          </mxGeometry>
        </mxCell>
        <mxCell id="vFmSvjuSKfPeqINILVZh-29" value="id" style="shape=partialRectangle;connectable=0;fillColor=none;top=0;left=0;bottom=0;right=0;align=left;spacingLeft=2;overflow=hidden;fontSize=11;fontStyle=1;strokeColor=#33001A;strokeWidth=2;" vertex="1" parent="vFmSvjuSKfPeqINILVZh-27">
          <mxGeometry x="36" width="66" height="22" as="geometry">
            <mxRectangle width="66" height="22" as="alternateBounds" />
          </mxGeometry>
        </mxCell>
        <mxCell id="vFmSvjuSKfPeqINILVZh-30" value="PK" style="shape=partialRectangle;connectable=0;fillColor=none;top=0;left=0;bottom=0;right=0;align=left;spacingLeft=2;overflow=hidden;fontSize=11;fontStyle=1;strokeColor=#33001A;strokeWidth=2;" vertex="1" parent="vFmSvjuSKfPeqINILVZh-27">
          <mxGeometry x="102" width="22" height="22" as="geometry">
            <mxRectangle width="22" height="22" as="alternateBounds" />
          </mxGeometry>
        </mxCell>
        <mxCell id="vFmSvjuSKfPeqINILVZh-31" style="shape=tableRow;horizontal=0;startSize=0;swimlaneHead=0;swimlaneBody=0;fillColor=none;collapsible=0;dropTarget=0;points=[[0,0.5],[1,0.5]];portConstraint=eastwest;top=0;left=0;right=0;bottom=0;fontStyle=1;strokeColor=#33001A;strokeWidth=2;" vertex="1" parent="vFmSvjuSKfPeqINILVZh-26">
          <mxGeometry y="47" width="124" height="22" as="geometry" />
        </mxCell>
        <mxCell id="vFmSvjuSKfPeqINILVZh-32" value="string" style="shape=partialRectangle;connectable=0;fillColor=none;top=0;left=0;bottom=0;right=0;align=left;spacingLeft=2;overflow=hidden;fontSize=11;fontStyle=1;strokeColor=#33001A;strokeWidth=2;" vertex="1" parent="vFmSvjuSKfPeqINILVZh-31">
          <mxGeometry width="36" height="22" as="geometry">
            <mxRectangle width="36" height="22" as="alternateBounds" />
          </mxGeometry>
        </mxCell>
        <mxCell id="vFmSvjuSKfPeqINILVZh-33" value="name" style="shape=partialRectangle;connectable=0;fillColor=none;top=0;left=0;bottom=0;right=0;align=left;spacingLeft=2;overflow=hidden;fontSize=11;fontStyle=1;strokeColor=#33001A;strokeWidth=2;" vertex="1" parent="vFmSvjuSKfPeqINILVZh-31">
          <mxGeometry x="36" width="66" height="22" as="geometry">
            <mxRectangle width="66" height="22" as="alternateBounds" />
          </mxGeometry>
        </mxCell>
        <mxCell id="vFmSvjuSKfPeqINILVZh-34" value="" style="shape=partialRectangle;connectable=0;fillColor=none;top=0;left=0;bottom=0;right=0;align=left;spacingLeft=2;overflow=hidden;fontSize=11;fontStyle=1;strokeColor=#33001A;strokeWidth=2;" vertex="1" parent="vFmSvjuSKfPeqINILVZh-31">
          <mxGeometry x="102" width="22" height="22" as="geometry">
            <mxRectangle width="22" height="22" as="alternateBounds" />
          </mxGeometry>
        </mxCell>
        <mxCell id="vFmSvjuSKfPeqINILVZh-35" style="shape=tableRow;horizontal=0;startSize=0;swimlaneHead=0;swimlaneBody=0;fillColor=none;collapsible=0;dropTarget=0;points=[[0,0.5],[1,0.5]];portConstraint=eastwest;top=0;left=0;right=0;bottom=0;fontStyle=1;strokeColor=#33001A;strokeWidth=2;" vertex="1" parent="vFmSvjuSKfPeqINILVZh-26">
          <mxGeometry y="69" width="124" height="22" as="geometry" />
        </mxCell>
        <mxCell id="vFmSvjuSKfPeqINILVZh-36" value="date" style="shape=partialRectangle;connectable=0;fillColor=none;top=0;left=0;bottom=0;right=0;align=left;spacingLeft=2;overflow=hidden;fontSize=11;fontStyle=1;strokeColor=#33001A;strokeWidth=2;" vertex="1" parent="vFmSvjuSKfPeqINILVZh-35">
          <mxGeometry width="36" height="22" as="geometry">
            <mxRectangle width="36" height="22" as="alternateBounds" />
          </mxGeometry>
        </mxCell>
        <mxCell id="vFmSvjuSKfPeqINILVZh-37" value="date" style="shape=partialRectangle;connectable=0;fillColor=none;top=0;left=0;bottom=0;right=0;align=left;spacingLeft=2;overflow=hidden;fontSize=11;fontStyle=1;strokeColor=#33001A;strokeWidth=2;" vertex="1" parent="vFmSvjuSKfPeqINILVZh-35">
          <mxGeometry x="36" width="66" height="22" as="geometry">
            <mxRectangle width="66" height="22" as="alternateBounds" />
          </mxGeometry>
        </mxCell>
        <mxCell id="vFmSvjuSKfPeqINILVZh-38" value="" style="shape=partialRectangle;connectable=0;fillColor=none;top=0;left=0;bottom=0;right=0;align=left;spacingLeft=2;overflow=hidden;fontSize=11;fontStyle=1;strokeColor=#33001A;strokeWidth=2;" vertex="1" parent="vFmSvjuSKfPeqINILVZh-35">
          <mxGeometry x="102" width="22" height="22" as="geometry">
            <mxRectangle width="22" height="22" as="alternateBounds" />
          </mxGeometry>
        </mxCell>
        <mxCell id="vFmSvjuSKfPeqINILVZh-39" style="shape=tableRow;horizontal=0;startSize=0;swimlaneHead=0;swimlaneBody=0;fillColor=none;collapsible=0;dropTarget=0;points=[[0,0.5],[1,0.5]];portConstraint=eastwest;top=0;left=0;right=0;bottom=0;fontStyle=1;strokeColor=#33001A;strokeWidth=2;" vertex="1" parent="vFmSvjuSKfPeqINILVZh-26">
          <mxGeometry y="91" width="124" height="22" as="geometry" />
        </mxCell>
        <mxCell id="vFmSvjuSKfPeqINILVZh-40" value="text" style="shape=partialRectangle;connectable=0;fillColor=none;top=0;left=0;bottom=0;right=0;align=left;spacingLeft=2;overflow=hidden;fontSize=11;fontStyle=1;strokeColor=#33001A;strokeWidth=2;" vertex="1" parent="vFmSvjuSKfPeqINILVZh-39">
          <mxGeometry width="36" height="22" as="geometry">
            <mxRectangle width="36" height="22" as="alternateBounds" />
          </mxGeometry>
        </mxCell>
        <mxCell id="vFmSvjuSKfPeqINILVZh-41" value="description" style="shape=partialRectangle;connectable=0;fillColor=none;top=0;left=0;bottom=0;right=0;align=left;spacingLeft=2;overflow=hidden;fontSize=11;fontStyle=1;strokeColor=#33001A;strokeWidth=2;" vertex="1" parent="vFmSvjuSKfPeqINILVZh-39">
          <mxGeometry x="36" width="66" height="22" as="geometry">
            <mxRectangle width="66" height="22" as="alternateBounds" />
          </mxGeometry>
        </mxCell>
        <mxCell id="vFmSvjuSKfPeqINILVZh-42" value="" style="shape=partialRectangle;connectable=0;fillColor=none;top=0;left=0;bottom=0;right=0;align=left;spacingLeft=2;overflow=hidden;fontSize=11;fontStyle=1;strokeColor=#33001A;strokeWidth=2;" vertex="1" parent="vFmSvjuSKfPeqINILVZh-39">
          <mxGeometry x="102" width="22" height="22" as="geometry">
            <mxRectangle width="22" height="22" as="alternateBounds" />
          </mxGeometry>
        </mxCell>
        <mxCell id="vFmSvjuSKfPeqINILVZh-43" value="VISIT" style="shape=table;startSize=25;container=1;collapsible=0;childLayout=tableLayout;fixedRows=1;rowLines=1;fontStyle=1;align=center;resizeLast=1;fillColor=#d5e8d4;strokeColor=#33001A;strokeWidth=2;" vertex="1" parent="1">
          <mxGeometry x="174" y="230" width="116" height="111" as="geometry" />
        </mxCell>
        <mxCell id="vFmSvjuSKfPeqINILVZh-44" style="shape=tableRow;horizontal=0;startSize=0;swimlaneHead=0;swimlaneBody=0;fillColor=none;collapsible=0;dropTarget=0;points=[[0,0.5],[1,0.5]];portConstraint=eastwest;top=0;left=0;right=0;bottom=0;fontStyle=1;strokeColor=#33001A;strokeWidth=2;" vertex="1" parent="vFmSvjuSKfPeqINILVZh-43">
          <mxGeometry y="25" width="116" height="22" as="geometry" />
        </mxCell>
        <mxCell id="vFmSvjuSKfPeqINILVZh-45" value="int" style="shape=partialRectangle;connectable=0;fillColor=none;top=0;left=0;bottom=0;right=0;align=left;spacingLeft=2;overflow=hidden;fontSize=11;fontStyle=1;strokeColor=#33001A;strokeWidth=2;" vertex="1" parent="vFmSvjuSKfPeqINILVZh-44">
          <mxGeometry width="24" height="22" as="geometry">
            <mxRectangle width="24" height="22" as="alternateBounds" />
          </mxGeometry>
        </mxCell>
        <mxCell id="vFmSvjuSKfPeqINILVZh-46" value="id" style="shape=partialRectangle;connectable=0;fillColor=none;top=0;left=0;bottom=0;right=0;align=left;spacingLeft=2;overflow=hidden;fontSize=11;fontStyle=1;strokeColor=#33001A;strokeWidth=2;" vertex="1" parent="vFmSvjuSKfPeqINILVZh-44">
          <mxGeometry x="24" width="70" height="22" as="geometry">
            <mxRectangle width="70" height="22" as="alternateBounds" />
          </mxGeometry>
        </mxCell>
        <mxCell id="vFmSvjuSKfPeqINILVZh-47" value="PK" style="shape=partialRectangle;connectable=0;fillColor=none;top=0;left=0;bottom=0;right=0;align=left;spacingLeft=2;overflow=hidden;fontSize=11;fontStyle=1;strokeColor=#33001A;strokeWidth=2;" vertex="1" parent="vFmSvjuSKfPeqINILVZh-44">
          <mxGeometry x="94" width="22" height="22" as="geometry">
            <mxRectangle width="22" height="22" as="alternateBounds" />
          </mxGeometry>
        </mxCell>
        <mxCell id="vFmSvjuSKfPeqINILVZh-48" style="shape=tableRow;horizontal=0;startSize=0;swimlaneHead=0;swimlaneBody=0;fillColor=none;collapsible=0;dropTarget=0;points=[[0,0.5],[1,0.5]];portConstraint=eastwest;top=0;left=0;right=0;bottom=0;fontStyle=1;strokeColor=#33001A;strokeWidth=2;" vertex="1" parent="vFmSvjuSKfPeqINILVZh-43">
          <mxGeometry y="47" width="116" height="22" as="geometry" />
        </mxCell>
        <mxCell id="vFmSvjuSKfPeqINILVZh-49" value="int" style="shape=partialRectangle;connectable=0;fillColor=none;top=0;left=0;bottom=0;right=0;align=left;spacingLeft=2;overflow=hidden;fontSize=11;fontStyle=1;strokeColor=#33001A;strokeWidth=2;" vertex="1" parent="vFmSvjuSKfPeqINILVZh-48">
          <mxGeometry width="24" height="22" as="geometry">
            <mxRectangle width="24" height="22" as="alternateBounds" />
          </mxGeometry>
        </mxCell>
        <mxCell id="vFmSvjuSKfPeqINILVZh-50" value="member_id" style="shape=partialRectangle;connectable=0;fillColor=none;top=0;left=0;bottom=0;right=0;align=left;spacingLeft=2;overflow=hidden;fontSize=11;fontStyle=1;strokeColor=#33001A;strokeWidth=2;" vertex="1" parent="vFmSvjuSKfPeqINILVZh-48">
          <mxGeometry x="24" width="70" height="22" as="geometry">
            <mxRectangle width="70" height="22" as="alternateBounds" />
          </mxGeometry>
        </mxCell>
        <mxCell id="vFmSvjuSKfPeqINILVZh-51" value="FK" style="shape=partialRectangle;connectable=0;fillColor=none;top=0;left=0;bottom=0;right=0;align=left;spacingLeft=2;overflow=hidden;fontSize=11;fontStyle=1;strokeColor=#33001A;strokeWidth=2;" vertex="1" parent="vFmSvjuSKfPeqINILVZh-48">
          <mxGeometry x="94" width="22" height="22" as="geometry">
            <mxRectangle width="22" height="22" as="alternateBounds" />
          </mxGeometry>
        </mxCell>
        <mxCell id="vFmSvjuSKfPeqINILVZh-52" style="shape=tableRow;horizontal=0;startSize=0;swimlaneHead=0;swimlaneBody=0;fillColor=none;collapsible=0;dropTarget=0;points=[[0,0.5],[1,0.5]];portConstraint=eastwest;top=0;left=0;right=0;bottom=0;fontStyle=1;strokeColor=#33001A;strokeWidth=2;" vertex="1" parent="vFmSvjuSKfPeqINILVZh-43">
          <mxGeometry y="69" width="116" height="22" as="geometry" />
        </mxCell>
        <mxCell id="vFmSvjuSKfPeqINILVZh-53" value="int" style="shape=partialRectangle;connectable=0;fillColor=none;top=0;left=0;bottom=0;right=0;align=left;spacingLeft=2;overflow=hidden;fontSize=11;fontStyle=1;strokeColor=#33001A;strokeWidth=2;" vertex="1" parent="vFmSvjuSKfPeqINILVZh-52">
          <mxGeometry width="24" height="22" as="geometry">
            <mxRectangle width="24" height="22" as="alternateBounds" />
          </mxGeometry>
        </mxCell>
        <mxCell id="vFmSvjuSKfPeqINILVZh-54" value="event_id" style="shape=partialRectangle;connectable=0;fillColor=none;top=0;left=0;bottom=0;right=0;align=left;spacingLeft=2;overflow=hidden;fontSize=11;fontStyle=1;strokeColor=#33001A;strokeWidth=2;" vertex="1" parent="vFmSvjuSKfPeqINILVZh-52">
          <mxGeometry x="24" width="70" height="22" as="geometry">
            <mxRectangle width="70" height="22" as="alternateBounds" />
          </mxGeometry>
        </mxCell>
        <mxCell id="vFmSvjuSKfPeqINILVZh-55" value="FK" style="shape=partialRectangle;connectable=0;fillColor=none;top=0;left=0;bottom=0;right=0;align=left;spacingLeft=2;overflow=hidden;fontSize=11;fontStyle=1;strokeColor=#33001A;strokeWidth=2;" vertex="1" parent="vFmSvjuSKfPeqINILVZh-52">
          <mxGeometry x="94" width="22" height="22" as="geometry">
            <mxRectangle width="22" height="22" as="alternateBounds" />
          </mxGeometry>
        </mxCell>
        <mxCell id="vFmSvjuSKfPeqINILVZh-56" style="shape=tableRow;horizontal=0;startSize=0;swimlaneHead=0;swimlaneBody=0;fillColor=none;collapsible=0;dropTarget=0;points=[[0,0.5],[1,0.5]];portConstraint=eastwest;top=0;left=0;right=0;bottom=0;fontStyle=1;strokeColor=#33001A;strokeWidth=2;" vertex="1" parent="vFmSvjuSKfPeqINILVZh-43">
          <mxGeometry y="91" width="116" height="20" as="geometry" />
        </mxCell>
        <mxCell id="vFmSvjuSKfPeqINILVZh-57" value="date" style="shape=partialRectangle;connectable=0;fillColor=none;top=0;left=0;bottom=0;right=0;align=left;spacingLeft=2;overflow=hidden;fontSize=11;fontStyle=1;strokeColor=#33001A;strokeWidth=2;" vertex="1" parent="vFmSvjuSKfPeqINILVZh-56">
          <mxGeometry width="24" height="20" as="geometry">
            <mxRectangle width="24" height="20" as="alternateBounds" />
          </mxGeometry>
        </mxCell>
        <mxCell id="vFmSvjuSKfPeqINILVZh-58" value="visit_date" style="shape=partialRectangle;connectable=0;fillColor=none;top=0;left=0;bottom=0;right=0;align=left;spacingLeft=2;overflow=hidden;fontSize=11;fontStyle=1;strokeColor=#33001A;strokeWidth=2;" vertex="1" parent="vFmSvjuSKfPeqINILVZh-56">
          <mxGeometry x="24" width="70" height="20" as="geometry">
            <mxRectangle width="70" height="20" as="alternateBounds" />
          </mxGeometry>
        </mxCell>
        <mxCell id="vFmSvjuSKfPeqINILVZh-59" value="" style="shape=partialRectangle;connectable=0;fillColor=none;top=0;left=0;bottom=0;right=0;align=left;spacingLeft=2;overflow=hidden;fontSize=11;fontStyle=1;strokeColor=#33001A;strokeWidth=2;" vertex="1" parent="vFmSvjuSKfPeqINILVZh-56">
          <mxGeometry x="94" width="22" height="20" as="geometry">
            <mxRectangle width="22" height="20" as="alternateBounds" />
          </mxGeometry>
        </mxCell>
        <mxCell id="vFmSvjuSKfPeqINILVZh-60" value="has many" style="curved=1;startArrow=ERmandOne;startSize=10;;endArrow=ERzeroToMany;endSize=10;;exitX=0.48;exitY=1;entryX=0;entryY=0.05;rounded=0;fontStyle=1;strokeColor=#33001A;strokeWidth=2;" edge="1" parent="1" source="vFmSvjuSKfPeqINILVZh-1" target="vFmSvjuSKfPeqINILVZh-43">
          <mxGeometry relative="1" as="geometry">
            <Array as="points">
              <mxPoint x="105" y="226" />
            </Array>
          </mxGeometry>
        </mxCell>
        <mxCell id="vFmSvjuSKfPeqINILVZh-61" value="has many" style="curved=1;startArrow=ERmandOne;startSize=10;;endArrow=ERzeroToMany;endSize=10;;exitX=0.48;exitY=1;entryX=0.99;entryY=0.05;rounded=0;fontStyle=1;strokeColor=#33001A;strokeWidth=2;" edge="1" parent="1" source="vFmSvjuSKfPeqINILVZh-26" target="vFmSvjuSKfPeqINILVZh-43">
          <mxGeometry relative="1" as="geometry">
            <Array as="points">
              <mxPoint x="350" y="226" />
            </Array>
          </mxGeometry>
        </mxCell>
      </root>
    </mxGraphModel>
  </diagram>
</mxfile>
